<svg viewBox="0 0 253.22 273.79" xmlns="http://www.w3.org/2000/svg" data-name="Layer 1" id="Layer_1"><defs><style>.cls-1{fill:#0071bc;}.cls-2{fill:#ffc300;}.cls-3{fill:#a8161b;}.cls-4{fill:#c1272d;}.cls-5{fill:#ff9f00;}.cls-6{fill:none;}.cls-7{fill:#23bc72;}</style></defs><title>voni</title><path transform="translate(-114.17 -93)" d="M298.62,248.75h31.7v117.6h-31.7Z" class="cls-1"></path><circle r="59.73" cy="213.1" cx="64.37" class="cls-2"></circle><path transform="translate(-114.17 -93)" d="M364.27,335v31.82H265.12V335Z" class="cls-1"></path><path transform="translate(-114.17 -93)" d="M364.27,248v31.82H265.12V248Z" class="cls-1"></path><path transform="translate(-114.17 -93)" d="M241.75,112,193.54,230H162.21l-48-118h34.38l30.53,76.9L210.25,112Z" class="cls-3"></path><path transform="translate(-114.17 -93)" d="M367.39,112V230H341.21l-49.65-62.91V230H260.38V112h26.19l49.65,62.9V112Z" class="cls-4"></path><path transform="translate(-114.17 -93)" d="M217,296.76a6,6,0,0,1-.59,2.61,5.67,5.67,0,0,1-1.68,2.05L198,314.14l6.37,20.59a6.41,6.41,0,0,1,.27,1.81,5.92,5.92,0,0,1-.42,2.22,5.6,5.6,0,0,1-2.91,3.06,5.3,5.3,0,0,1-2.12.44,5.23,5.23,0,0,1-3.22-1.1l-16.7-12.73-16.69,12.73a5.15,5.15,0,0,1-3.22,1.1,5,5,0,0,1-2.12-.46,5.69,5.69,0,0,1-1.74-1.24,6.2,6.2,0,0,1-1.19-1.84,5.79,5.79,0,0,1-.44-2.25,6.15,6.15,0,0,1,.27-1.74l6.4-20.59-16.69-12.72a5.57,5.57,0,0,1-1.68-2.05,6,6,0,0,1-.59-2.61,5.57,5.57,0,0,1,.44-2.22,6,6,0,0,1,1.18-1.83,5.77,5.77,0,0,1,1.75-1.25,4.92,4.92,0,0,1,2.11-.46h20.63l6.37-20.58a5.75,5.75,0,0,1,2-2.88,5.25,5.25,0,0,1,6.43,0,5.75,5.75,0,0,1,2,2.88L190.89,291h20.62a5,5,0,0,1,2.12.46,5.6,5.6,0,0,1,1.74,1.25,5.84,5.84,0,0,1,1.19,1.83A5.75,5.75,0,0,1,217,296.76Z" class="cls-5"></path><line y2="148" x2="69.83" x1="8.83" class="cls-6"></line><path transform="translate(-114.17 -93)" d="M193.54,230H162.21l-48-118h34.38l30.53,76.9Z" class="cls-4"></path><path transform="translate(-114.17 -93)" d="M364.27,248v31.82L332,248Z" class="cls-7"></path></svg>